<?xml version="1.0" encoding="UTF-8"?>
<svg version="1.1" xmlns="http://www.w3.org/2000/svg" width="2000" height="2000">
<path d="M0 0 C2.67777146 -0.00269575 5.35553146 -0.00618328 8.03329954 -0.01062447 C13.85662261 -0.01869295 19.67990994 -0.01940129 25.50323657 -0.01521258 C34.22113465 -0.00897633 42.93900016 -0.01430509 51.65689588 -0.02181 C66.51798155 -0.03426122 81.37905557 -0.03722462 96.24014568 -0.03497505 C111.29634951 -0.03272466 126.35254345 -0.03479948 141.40874577 -0.04211998 C142.36043934 -0.04257929 143.31213292 -0.04303859 144.29266569 -0.04351182 C148.16891836 -0.04539514 152.04517101 -0.04730652 155.92142364 -0.0492542 C196.3416566 -0.06953411 236.76188402 -0.07566585 277.18212149 -0.07683842 C281.53186026 -0.07696792 285.88159902 -0.07710379 290.23133779 -0.07724524 C291.31076088 -0.07727924 292.39018397 -0.07731325 293.50231685 -0.07734829 C317.43114328 -0.0781655 341.35996866 -0.08254629 365.28879453 -0.08755693 C375.14451144 -0.08961367 385.00022837 -0.09159374 394.85594529 -0.09358943 C395.94494896 -0.0938106 397.03395263 -0.09403178 398.15595642 -0.09425966 C460.55633533 -0.10690679 522.95671355 -0.11515801 585.35709381 -0.11424255 C587.69199916 -0.114211 590.0269045 -0.11417952 592.36180985 -0.11414814 C602.90350723 -0.11400137 613.44520462 -0.11382503 623.986902 -0.11364037 C628.68762561 -0.11355812 633.38834922 -0.11347783 638.08907282 -0.11339774 C640.4418691 -0.11335695 642.79466538 -0.11331491 645.14746166 -0.11327162 C719.53506154 -0.11191132 793.92264238 -0.12654289 868.31023693 -0.15435219 C887.05072461 -0.16135439 905.7912123 -0.16829339 924.53170013 -0.17488098 C926.26265648 -0.1754896 926.26265648 -0.1754896 928.02858164 -0.17611052 C963.60415443 -0.18854359 999.17972565 -0.19607224 1034.75530052 -0.19859695 C1035.8725014 -0.19867686 1036.98970227 -0.19875676 1038.14075772 -0.19883908 C1062.66800772 -0.20054577 1087.19525764 -0.20106798 1111.72250769 -0.20049833 C1120.49921058 -0.20030536 1129.27591346 -0.20020127 1138.05261635 -0.20014087 C1140.23598608 -0.20012504 1142.41935582 -0.20010463 1144.60272556 -0.20007962 C1179.3685016 -0.19972722 1214.13426133 -0.21111315 1248.90003271 -0.22838725 C1283.92432149 -0.24570132 1318.9485877 -0.25005749 1353.97287897 -0.23686461 C1358.81792449 -0.23504014 1363.66297004 -0.23335356 1368.50801563 -0.23174858 C1369.93258827 -0.23126832 1369.93258827 -0.23126832 1371.38594015 -0.23077835 C1386.39371583 -0.22608143 1401.40145234 -0.23476643 1416.40922066 -0.24909095 C1431.18436373 -0.26291115 1445.95944923 -0.26233992 1460.73459108 -0.24670668 C1469.38436204 -0.23797806 1478.03396291 -0.24000474 1486.68371958 -0.25844025 C1492.44585925 -0.26961169 1498.20787341 -0.2659788 1503.97000365 -0.25087469 C1507.22518036 -0.24273965 1510.47996595 -0.24262921 1513.73513296 -0.25637607 C1582.23512479 -0.52607179 1642.23937227 26.81578062 1690.68108654 74.25726891 C1693.17004714 76.81747837 1695.43404906 79.48402645 1697.68108654 82.25726891 C1698.65151828 83.40518476 1699.62298195 84.55222859 1700.59514904 85.69867516 C1728.49011759 118.91469737 1746.70472952 159.47185087 1753.68108654 202.25726891 C1753.85382219 203.29588179 1754.02655783 204.33449467 1754.20452789 205.40458066 C1756.10543008 218.43855783 1755.96123416 231.42812758 1755.93835545 244.57618237 C1755.9410512 247.25395382 1755.94453873 249.93171383 1755.94897991 252.6094819 C1755.95704839 258.43280498 1755.95775674 264.25609231 1755.95356803 270.07941893 C1755.94733178 278.79731701 1755.95266053 287.51518252 1755.96016544 296.23307824 C1755.97261666 311.09416392 1755.97558007 325.95523793 1755.9733305 340.81632805 C1755.97108011 355.87253187 1755.97315492 370.92872581 1755.98047543 385.98492813 C1755.98093473 386.93662171 1755.98139404 387.88831528 1755.98186726 388.86884806 C1755.98375059 392.74510072 1755.98566197 396.62135337 1755.98760964 400.49760601 C1756.00788956 440.91783897 1756.0140213 481.33806639 1756.01519386 521.75830386 C1756.01532336 526.10804262 1756.01545924 530.45778139 1756.01560068 534.80752015 C1756.01563469 535.88694324 1756.0156687 536.96636633 1756.01570374 538.07849921 C1756.01652094 562.00732565 1756.02090174 585.93615103 1756.02591237 609.8649769 C1756.02796911 619.72069381 1756.02994919 629.57641073 1756.03194487 639.43212765 C1756.03216605 640.52113133 1756.03238723 641.610135 1756.03261511 642.73213878 C1756.04526223 705.1325177 1756.05351346 767.53289592 1756.052598 829.93327618 C1756.05256644 832.26818152 1756.05253497 834.60308687 1756.05250358 836.93799221 C1756.05235682 847.4796896 1756.05218048 858.02138698 1756.05199581 868.56308437 C1756.05191357 873.26380797 1756.05183327 877.96453158 1756.05175319 882.66525519 C1756.0517124 885.01805147 1756.05167036 887.37084774 1756.05162707 889.72364402 C1756.05026677 964.11124391 1756.06489833 1038.49882475 1756.09270763 1112.8864193 C1756.09970984 1131.62690697 1756.10664883 1150.36739467 1756.11323643 1169.1078825 C1756.11364218 1170.2618534 1756.11404792 1171.41582429 1756.11446597 1172.60476401 C1756.12689904 1208.18033679 1756.13442769 1243.75590802 1756.1369524 1279.33148289 C1756.13707225 1281.0072842 1756.13707225 1281.0072842 1756.13719453 1282.71694008 C1756.13890121 1307.24419009 1756.13942342 1331.77144 1756.13885377 1356.29869006 C1756.13866081 1365.07539294 1756.13855672 1373.85209583 1756.13849631 1382.62879871 C1756.13848049 1384.81216845 1756.13846008 1386.99553819 1756.13843507 1389.17890792 C1756.13808267 1423.94468397 1756.1494686 1458.7104437 1756.1667427 1493.47621507 C1756.18405677 1528.50050386 1756.18841294 1563.52477007 1756.17522006 1598.54906134 C1756.17339559 1603.39410685 1756.171709 1608.23915241 1756.17010403 1613.084198 C1756.16962376 1614.50877063 1756.16962376 1614.50877063 1756.1691338 1615.96212251 C1756.16443688 1630.9698982 1756.17312188 1645.9776347 1756.1874464 1660.98540302 C1756.2012666 1675.76054609 1756.20069537 1690.53563159 1756.18506213 1705.31077344 C1756.17633351 1713.9605444 1756.17836019 1722.61014527 1756.1967957 1731.25990194 C1756.20796714 1737.02204161 1756.20433424 1742.78405578 1756.18923013 1748.54618601 C1756.1810951 1751.80136273 1756.18098466 1755.05614832 1756.19473151 1758.31131532 C1756.46442724 1826.81130715 1729.12257482 1886.81555463 1681.68108654 1935.25726891 C1679.12087707 1937.7462295 1676.454329 1940.01023143 1673.68108654 1942.25726891 C1672.53317068 1943.22770065 1671.38612686 1944.19916432 1670.23968029 1945.17133141 C1637.02365808 1973.06629996 1596.46650458 1991.28091189 1553.68108654 1998.25726891 C1552.64247366 1998.43000455 1551.60386078 1998.6027402 1550.53377478 1998.78071026 C1537.49979762 2000.68161244 1524.51022787 2000.53741652 1511.36217308 2000.51453781 C1508.68440162 2000.51723356 1506.00664162 2000.52072109 1503.32887354 2000.52516228 C1497.50555047 2000.53323076 1491.68226314 2000.5339391 1485.85893651 2000.52975039 C1477.14103843 2000.52351415 1468.42317292 2000.5288429 1459.7052772 2000.53634781 C1444.84419153 2000.54879903 1429.98311751 2000.55176244 1415.1220274 2000.54951286 C1400.06582357 2000.54726248 1385.00962963 2000.54933729 1369.95342731 2000.55665779 C1369.00173374 2000.5571171 1368.05004016 2000.5575764 1367.06950739 2000.55804963 C1363.19325472 2000.55993295 1359.31700207 2000.56184433 1355.44074944 2000.56379201 C1315.02051648 2000.58407192 1274.60028906 2000.59020366 1234.18005159 2000.59137623 C1229.83031282 2000.59150573 1225.48057406 2000.59164161 1221.13083529 2000.59178305 C1220.0514122 2000.59181706 1218.97198911 2000.59185106 1217.85985623 2000.5918861 C1193.9310298 2000.59270331 1170.00220442 2000.5970841 1146.07337855 2000.60209474 C1136.21766164 2000.60415148 1126.36194471 2000.60613155 1116.50622779 2000.60812724 C1115.41722412 2000.60834842 1114.32822045 2000.60856959 1113.20621666 2000.60879747 C1050.80583775 2000.6214446 988.40545953 2000.62969582 926.00507927 2000.62878036 C923.67017392 2000.62874881 921.33526858 2000.62871734 919.00036323 2000.62868595 C908.45866585 2000.62853918 897.91696846 2000.62836284 887.37527108 2000.62817818 C882.67454747 2000.62809593 877.97382386 2000.62801564 873.27310026 2000.62793555 C870.92030398 2000.62789476 868.5675077 2000.62785272 866.21471142 2000.62780943 C791.82711154 2000.62644914 717.4395307 2000.6410807 643.05193615 2000.66889 C624.31144847 2000.6758922 605.57096078 2000.6828312 586.83047295 2000.68941879 C585.0995166 2000.69002741 585.0995166 2000.69002741 583.33359144 2000.69064833 C547.75801865 2000.70308141 512.18244743 2000.71061006 476.60687256 2000.71313477 C475.48967168 2000.71321467 474.37247081 2000.71329457 473.22141536 2000.71337689 C448.69416536 2000.71508358 424.16691545 2000.71560579 399.63966539 2000.71503614 C390.8629625 2000.71484318 382.08625962 2000.71473908 373.30955673 2000.71467868 C371.126187 2000.71466285 368.94281726 2000.71464244 366.75944752 2000.71461743 C331.99367148 2000.71426503 297.22791175 2000.72565096 262.46214037 2000.74292506 C227.43785159 2000.76023913 192.41358538 2000.7645953 157.38929411 2000.75140242 C152.54424859 2000.74957795 147.69920304 2000.74789137 142.85415745 2000.74628639 C141.90444236 2000.74596622 140.95472727 2000.74564604 139.97623293 2000.74531617 C124.96845725 2000.74061924 109.96072074 2000.74930424 94.95295242 2000.76362877 C80.17780935 2000.77744897 65.40272385 2000.77687773 50.627582 2000.76124449 C41.97781104 2000.75251587 33.32821017 2000.75454256 24.6784535 2000.77297806 C18.91631383 2000.7841495 13.15429967 2000.78051661 7.39216943 2000.7654125 C4.13699272 2000.75727746 0.88220713 2000.75716703 -2.37295988 2000.77091388 C-70.87295171 2001.0406096 -130.87719918 1973.69875719 -179.31891346 1926.25726891 C-181.80787406 1923.69705944 -184.07187598 1921.03051136 -186.31891346 1918.25726891 C-187.2893452 1917.10935305 -188.26080887 1915.96230922 -189.23297596 1914.81586266 C-217.12794451 1881.59984044 -235.34255644 1841.04268694 -242.31891346 1798.25726891 C-242.49164911 1797.21865603 -242.66438475 1796.18004315 -242.84235481 1795.10995715 C-244.743257 1782.07597998 -244.59906108 1769.08641023 -244.57618237 1755.93835545 C-244.57887812 1753.26058399 -244.58236565 1750.58282398 -244.58680683 1747.90505591 C-244.59487531 1742.08173284 -244.59558366 1736.2584455 -244.59139495 1730.43511888 C-244.5851587 1721.7172208 -244.59048745 1712.99935529 -244.59799236 1704.28145957 C-244.61044358 1689.42037389 -244.61340699 1674.55929988 -244.61115742 1659.69820976 C-244.60890703 1644.64200594 -244.61098184 1629.585812 -244.61830235 1614.52960968 C-244.61876165 1613.5779161 -244.61922096 1612.62622253 -244.61969418 1611.64568975 C-244.6215775 1607.76943709 -244.62348889 1603.89318444 -244.62543656 1600.01693181 C-244.64571648 1559.59669884 -244.65184822 1519.17647142 -244.65302078 1478.75623395 C-244.65315028 1474.40649519 -244.65328616 1470.05675642 -244.6534276 1465.70701766 C-244.65346161 1464.62759457 -244.65349562 1463.54817148 -244.65353066 1462.4360386 C-244.65434786 1438.50721216 -244.65872866 1414.57838679 -244.66373929 1390.64956091 C-244.66579603 1380.793844 -244.66777611 1370.93812708 -244.66977179 1361.08241016 C-244.66999297 1359.99340648 -244.67021415 1358.90440281 -244.67044203 1357.78239903 C-244.68308915 1295.38202012 -244.69134038 1232.98164189 -244.69042492 1170.58126163 C-244.69039336 1168.24635629 -244.69036189 1165.91145094 -244.6903305 1163.5765456 C-244.69018374 1153.03484821 -244.6900074 1142.49315083 -244.68982273 1131.95145345 C-244.68974049 1127.25072984 -244.68966019 1122.55000623 -244.68958011 1117.84928262 C-244.68953932 1115.49648634 -244.68949728 1113.14369007 -244.68945399 1110.79089379 C-244.68809369 1036.4032939 -244.70272525 962.01571306 -244.73053455 887.62811852 C-244.73753676 868.88763084 -244.74447575 850.14714314 -244.75106335 831.40665531 C-244.75146909 830.25268441 -244.75187484 829.09871352 -244.75229289 827.9097738 C-244.76472596 792.33420102 -244.77225461 756.75862979 -244.77477932 721.18305492 C-244.77485922 720.06585405 -244.77493912 718.94865318 -244.77502145 717.79759773 C-244.77672813 693.27034772 -244.77725034 668.74309781 -244.77668069 644.21584775 C-244.77648773 635.43914487 -244.77638364 626.66244198 -244.77632323 617.8857391 C-244.77630741 615.70236936 -244.776287 613.51899963 -244.77626199 611.33562989 C-244.77590959 576.56985384 -244.78729552 541.80409411 -244.80456962 507.03832274 C-244.82188369 472.01403395 -244.82623985 436.98976774 -244.81304698 401.96547647 C-244.81122251 397.12043096 -244.80953592 392.27538541 -244.80793095 387.43033981 C-244.80745068 386.00576718 -244.80745068 386.00576718 -244.80696072 384.5524153 C-244.8022638 369.54463961 -244.8109488 354.53690311 -244.82527332 339.52913479 C-244.83909352 324.75399172 -244.83852229 309.97890622 -244.82288905 295.20376437 C-244.81416043 286.55399341 -244.81618711 277.90439254 -244.83462262 269.25463587 C-244.84579406 263.4924962 -244.84216116 257.73048203 -244.82705705 251.9683518 C-244.81892202 248.71317508 -244.81881158 245.45838949 -244.83255843 242.20322249 C-245.10225416 173.70323066 -217.76040174 113.69898318 -170.31891346 65.25726891 C-167.75870399 62.76830831 -165.09215592 60.50430638 -162.31891346 58.25726891 C-161.1709976 57.28683716 -160.02395378 56.31537349 -158.87750721 55.34320641 C-125.661485 27.44823785 -85.1043315 9.23362592 -42.31891346 2.25726891 C-40.76099414 1.99816544 -40.76099414 1.99816544 -39.1716017 1.73382755 C-26.13762454 -0.16707463 -13.14805479 -0.02287871 0 0 Z " fill="#4F39F6" transform="translate(244.31891345977783,-0.25726890563964844)"/>
<path d="M0 0 C1.56284225 0.00190338 1.56284225 0.00190338 3.15725708 0.00384521 C41.63560875 0.09296406 80.27807299 3.41785949 117.375 14.1875 C118.76066162 14.57542725 118.76066162 14.57542725 120.17431641 14.97119141 C150.82146235 23.57048497 181.0835339 35.7133521 208.375 52.1875 C209.0045459 52.5602002 209.6340918 52.93290039 210.28271484 53.31689453 C227.14212064 63.32095909 242.81737769 75.07011639 257.375 88.1875 C257.94476562 88.70086914 258.51453125 89.21423828 259.1015625 89.74316406 C268.36015619 98.12468245 277.24477493 106.69276164 285.375 116.1875 C285.95894531 116.84363281 286.54289062 117.49976563 287.14453125 118.17578125 C287.69496094 118.79839844 288.24539063 119.42101562 288.8125 120.0625 C289.30621094 120.61679687 289.79992188 121.17109375 290.30859375 121.7421875 C291.375 123.1875 291.375 123.1875 291.375 125.1875 C289.89746094 126.65917969 289.89746094 126.65917969 287.859375 128.359375 C283.65865356 131.93202023 279.6314658 135.64972232 275.625 139.4375 C269.88685663 144.83986904 264.11564591 150.20009914 258.296875 155.515625 C255.16856015 158.37627655 252.0513228 161.2485975 248.9375 164.125 C248.12696167 164.87366333 248.12696167 164.87366333 247.30004883 165.63745117 C246.20535108 166.64870612 245.11070604 167.66001812 244.01611328 168.67138672 C241.30322414 171.17764104 238.58905141 173.68250446 235.875 176.1875 C234.79166043 177.18749324 233.70832709 178.18749324 232.625 179.1875 C226.125 185.1875 219.625 191.1875 213.125 197.1875 C212.5880249 197.68330566 212.0510498 198.17911133 211.49780273 198.68994141 C210.42234331 199.68239938 209.34634045 200.67426881 208.26977539 201.66552734 C205.43606349 204.27616986 202.6145617 206.89860013 199.80859375 209.5390625 C198.93074219 210.36083984 198.93074219 210.36083984 198.03515625 211.19921875 C196.91574821 212.24755326 195.7996617 213.29944983 194.6875 214.35546875 C192.04536662 216.8228045 189.64207535 218.66685351 186.375 220.1875 C185.75189941 219.4593811 185.75189941 219.4593811 185.11621094 218.71655273 C145.88206301 173.31594826 90.0785453 143.84210269 30.00512695 139.40795898 C-26.55476554 135.9730553 -84.13664352 147.79693057 -129.625 183.1875 C-130.18799805 183.62352539 -130.75099609 184.05955078 -131.33105469 184.50878906 C-147.1810385 196.9589561 -161.12721911 211.65503415 -172.625 228.1875 C-173.12306152 228.90035156 -173.62112305 229.61320313 -174.13427734 230.34765625 C-192.21251639 256.62191202 -203.58143973 285.78199737 -208.625 317.1875 C-208.77453125 318.09564453 -208.9240625 319.00378906 -209.078125 319.93945312 C-212.05092326 338.68602146 -212.01156585 357.27393378 -211.625 376.1875 C-211.61484863 377.07373047 -211.60469727 377.95996094 -211.59423828 378.87304688 C-211.32270056 400.38645649 -206.88692897 422.97837171 -199.625 443.1875 C-199.19429199 444.395271 -199.19429199 444.395271 -198.75488281 445.62744141 C-192.28211133 463.43980877 -183.85382985 480.86754609 -172.625 496.1875 C-171.85671875 497.239375 -171.0884375 498.29125 -170.296875 499.375 C-164.97667467 506.52785486 -159.24431017 513.21995699 -153.08447266 519.66064453 C-152.09991573 520.69065775 -151.1205186 521.72562459 -150.14599609 522.76513672 C-127.97478649 546.35656616 -99.25850641 563.08936996 -68.625 573.1875 C-67.19220703 573.70570313 -67.19220703 573.70570313 -65.73046875 574.234375 C-45.3694818 581.4763129 -23.16604847 584.69793072 -1.625 585.1875 C0.0137207 585.22834717 0.0137207 585.22834717 1.68554688 585.27001953 C61.81748255 586.56274232 118.39725923 569.53303466 162.671875 527.73828125 C165.25200571 525.30356253 167.89401652 522.96196943 170.5625 520.625 C176.40299622 515.38836769 182.01286557 509.73070165 186.375 503.1875 C189.62707092 504.60488489 191.68861067 506.31276412 194.125 508.875 C197.33726999 512.24248472 200.74894718 515.28320983 204.26074219 518.3293457 C207.6242835 521.28545574 210.87140664 524.36150013 214.125 527.4375 C219.86314337 532.83986904 225.63435409 538.20009914 231.453125 543.515625 C234.58143985 546.37627655 237.6986772 549.2485975 240.8125 552.125 C241.62303833 552.87366333 241.62303833 552.87366333 242.44995117 553.63745117 C243.54464892 554.64870612 244.63929396 555.66001812 245.73388672 556.67138672 C248.44677586 559.17764104 251.16094859 561.68250446 253.875 564.1875 C254.95833957 565.18749324 256.04167291 566.18749324 257.125 567.1875 C257.929375 567.93 257.929375 567.93 258.75 568.6875 C263.625 573.1875 263.625 573.1875 265.25195312 574.68945312 C266.32857614 575.68315933 267.40539709 576.67665114 268.48242188 577.66992188 C271.29513591 580.26443749 274.10367667 582.86328073 276.90625 585.46875 C277.48697266 586.00757813 278.06769531 586.54640625 278.66601562 587.1015625 C279.77016915 588.12621697 280.87312046 589.15216915 281.97460938 590.1796875 C285.00705139 592.99081172 288.11370883 595.64561129 291.375 598.1875 C289.85420927 601.69577915 287.7754327 604.14021646 285.1875 606.9375 C282.42862776 609.94160533 279.70282526 612.95393972 277.0625 616.0625 C269.82269373 624.36302207 261.84762356 632.15522245 253.375 639.1875 C252.85550781 639.62610352 252.33601562 640.06470703 251.80078125 640.51660156 C235.14306107 654.55431608 217.48647735 666.73875369 198.375 677.1875 C197.50568848 677.66928711 196.63637695 678.15107422 195.74072266 678.64746094 C155.7844925 700.68683856 112.37329175 713.59507546 67.375 720.1875 C66.29605469 720.34734375 65.21710938 720.5071875 64.10546875 720.671875 C61.11380179 721.10839496 58.12052014 721.52832077 55.125 721.9375 C53.87928223 722.11104004 53.87928223 722.11104004 52.60839844 722.28808594 C36.70512501 724.33270374 20.6328392 724.39486969 4.625 724.375 C3.15033264 724.37359512 3.15033264 724.37359512 1.64587402 724.37216187 C-43.15875039 724.28018942 -87.47200219 718.91736697 -130.20947266 704.97070312 C-132.32482769 704.28482694 -134.44556961 703.62744471 -136.57421875 702.984375 C-148.30434495 699.31951709 -159.4316428 694.22130577 -170.625 689.1875 C-171.78999023 688.67098877 -171.78999023 688.67098877 -172.97851562 688.14404297 C-221.38419763 666.64133825 -267.15055786 631.15185759 -299.625 589.1875 C-300.15673828 588.50655273 -300.68847656 587.82560547 -301.23632812 587.12402344 C-333.59764733 545.50900099 -357.4138333 497.81311442 -368.625 446.1875 C-368.78935547 445.44064941 -368.95371094 444.69379883 -369.12304688 443.92431641 C-371.60809186 432.49897548 -373.35042158 420.9850276 -374.6875 409.375 C-374.76685791 408.70106201 -374.84621582 408.02712402 -374.92797852 407.33276367 C-376.57167468 392.44962207 -376.82827358 377.58202202 -376.8125 362.625 C-376.81222809 361.65261383 -376.81195618 360.68022766 -376.81167603 359.67837524 C-376.79334129 345.41233747 -376.39540061 331.35616904 -374.625 317.1875 C-374.41558075 315.31001664 -374.20728496 313.4324077 -374 311.5546875 C-367.32415223 253.65013225 -345.7946742 198.3798822 -311.625 151.1875 C-311.22829102 150.63916504 -310.83158203 150.09083008 -310.42285156 149.52587891 C-302.61451589 138.80168948 -294.21292451 128.69236352 -285.1953125 118.9765625 C-283.04422571 116.6424045 -280.94574342 114.28003383 -278.875 111.875 C-273.97242897 106.23879007 -268.68529892 101.11020404 -263.01953125 96.24609375 C-261.21146382 94.69168668 -259.41998692 93.11795245 -257.63671875 91.53515625 C-248.42889381 83.41468752 -238.69946499 76.19424502 -228.625 69.1875 C-227.65626953 68.51074219 -227.65626953 68.51074219 -226.66796875 67.8203125 C-216.34835826 60.6508989 -205.58150591 54.32834191 -194.625 48.1875 C-193.94808105 47.80239258 -193.27116211 47.41728516 -192.57373047 47.02050781 C-161.30787978 29.30397427 -125.63219219 17.03440535 -90.625 9.1875 C-89.39910156 8.9105127 -89.39910156 8.9105127 -88.1484375 8.62792969 C-76.61492222 6.08781025 -64.95827064 4.48054549 -53.25 3 C-52.25070969 2.87271515 -52.25070969 2.87271515 -51.23123169 2.74285889 C-34.11262658 0.58509815 -17.22949265 -0.02159664 0 0 Z " fill="#FEFEFE" transform="translate(739.625,643.8125)"/>
<path d="M0 0 C200.97 0 401.94 0 609 0 C609 43.56 609 87.12 609 132 C535.08 132 461.16 132 385 132 C385 319.44 385 506.88 385 700 C331.87 700 278.74 700 224 700 C224 512.56 224 325.12 224 132 C150.08 132 76.16 132 0 132 C0 88.44 0 44.88 0 0 Z " fill="#FFFFFF" transform="translate(1055,656)"/>
</svg>
